<?xml version="1.0" encoding="UTF-8" standalone="no"?>
<svg
  xmlns="http://www.w3.org/2000/svg"
  viewBox="0 0 24 24">

  <!-- Black background -->
  <rect width="24" height="24" fill="#000000" />

  <!-- White bus body -->
  <path d="
    M4 16c0 .88.39 1.67 1 2.22V20a1 1 0 0 0 1 1h1v-1h10v1h1a1 1 0 0 0 1-1v-1.78
    c.61-.55 1-1.34 1-2.22V6a4 4 0 0 0-4-4H8a4 4 0 0 0-4 4v10Z

    M6 7h12v5H6V7Z
  " fill="#FFFFFF" />

  <!-- Left headlight: overlap up -->
  <circle cx="7" cy="15.8" r="1.5" fill="#000000"/>

  <!-- Right headlight: overlap up -->
  <circle cx="17" cy="15.8" r="1.5" fill="#000000"/>
</svg>
