<?xml version="1.0" encoding="UTF-8" standalone="no"?>
<svg
  xmlns="http://www.w3.org/2000/svg"
  viewBox="0 0 24 24">

  <!-- Black background -->
  <rect width="24" height="24" fill="#000000" />

  <!-- White bus icon -->
  <path d="M4 16c0 .88.39 1.67 1 2.22V20a1 1 0 0 0 1 1h1v-1h10v1h1a1 1 0 0 0 1-1v-1.78c.61-.55 1-1.34 1-2.22V6a4 4 0 0 0-4-4H8a4 4 0 0 0-4 4v10Zm12.5-1a1.5 1.5 0 1 1 0-3 1.5 1.5 0 0 1 0 3Zm-9 0a1.5 1.5 0 1 1 0-3 1.5 1.5 0 0 1 0 3ZM6 7h12v5H6V7Z"
    fill="#FFFFFF" />
</svg>
